<?xml version="1.0" ?><!DOCTYPE svg  PUBLIC '-//W3C//DTD SVG 1.1//EN'  'http://www.w3.org/Graphics/SVG/1.1/DTD/svg11.dtd'><svg height="100%" style="fill-rule:evenodd;clip-rule:evenodd;stroke-linejoin:round;stroke-miterlimit:1.41421;" version="1.1" viewBox="0 0 101 126" width="100%" xml:space="preserve" xmlns="http://www.w3.org/2000/svg" xmlns:serif="http://www.serif.com/" xmlns:xlink="http://www.w3.org/1999/xlink"><path d="M62.311,23.356l-24,0c-3.3,0 -6,2.7 -6,6l0,7.8l-17,0l0,8l7,0l0,49.8c0,4.4 3.6,8 8,8l40,0c4.4,0 8,-3.6 8,-8l0,-49.8l7,0l0,-8l-17,0l0,-7.8c0,-3.3 -2.7,-6 -6,-6Zm-22,8l20,0l0,5.8l-20,0l0,-5.8Z" style="fill:#ccc;fill-rule:nonzero;"/><clipPath id="_clip1"><path clip-rule="nonzero" d="M62.311,23.356l-24,0c-3.3,0 -6,2.7 -6,6l0,7.8l-17,0l0,8l7,0l0,49.8c0,4.4 3.6,8 8,8l40,0c4.4,0 8,-3.6 8,-8l0,-49.8l7,0l0,-8l-17,0l0,-7.8c0,-3.3 -2.7,-6 -6,-6Zm-22,8l20,0l0,5.8l-20,0l0,-5.8Z"/></clipPath><g clip-path="url(#_clip1)"><rect height="57.8" style="fill:#020000;fill-opacity:0.25;" width="35" x="50.311" y="45.156"/><rect height="15" style="fill:#020000;fill-opacity:0.5;" width="19" x="31.311" y="22.156"/><rect height="15" style="fill:#020000;fill-opacity:0.75;" width="19" x="50.311" y="22.156"/><rect height="8" style="fill:#020000;fill-opacity:0.25;" width="35" x="15.311" y="37.156"/><rect height="8" style="fill:#020000;fill-opacity:0.5;" width="35" x="50.311" y="37.156"/></g><path d="M17.151,42.966l0.078,-4.04l2.631,0l-2.709,4.04Z" style="fill:#fff;fill-opacity:0.25;fill-rule:nonzero;"/><path d="M25.868,88.441l-0.267,-40.24l2.709,0l-2.442,40.24Z" style="fill:#fff;fill-opacity:0.5;fill-rule:nonzero;"/><path d="M29.564,99.17c-2.047,-0.007 -3.704,-1.668 -3.704,-3.716c0,-1.7 0,-3.343 0,-3.343c0,0 0.382,1.163 0.775,2.359c0.534,1.624 1.761,2.927 3.351,3.556c1.423,0.563 2.922,1.156 2.922,1.156c0,0 -1.644,-0.006 -3.344,-0.012Z" style="fill:#fff;fill-opacity:0.5;"/></svg>