<svg xmlns="http://www.w3.org/2000/svg" width="24" height="20" fill="none" viewBox="0 0 24 20">
  <path fill="#000" d="M.282 10.83a.194.194 0 0 1-.044-.06c-.015-.014-.03-.044-.045-.059 0-.014-.015-.03-.03-.059-.014-.015-.014-.044-.03-.06-.014-.014-.014-.044-.029-.059 0-.015-.015-.044-.015-.06-.015-.029-.015-.044-.03-.074 0-.014-.014-.044-.014-.059 0-.03-.015-.045-.015-.074-.015-.015-.015-.045-.015-.075 0-.014 0-.03-.015-.06v-.267c.015-.03.015-.044.015-.06 0-.029 0-.059.015-.073 0-.03.015-.045.015-.075 0-.015.014-.044.014-.06.015-.029.015-.044.03-.073 0-.015.015-.045.015-.06.015-.015.015-.044.03-.06.015-.029.015-.044.03-.059.014-.03.03-.044.03-.06.014-.029.029-.044.044-.059a.205.205 0 0 1 .044-.06c.015-.014.015-.044.03-.059l.104-.104 8.59-8.59c.55-.55 1.442-.55 1.992 0 .535.535.535 1.427 0 1.977L4.77 8.601h17.477c.773 0 1.412.624 1.412 1.397s-.64 1.397-1.412 1.397H4.77l6.227 6.212c.535.55.535 1.442 0 1.977a1.396 1.396 0 0 1-1.992 0l-8.59-8.59-.104-.104c-.015-.015-.015-.045-.03-.06Z"/>
</svg>
