<svg xmlns="http://www.w3.org/2000/svg" width="24" height="20" fill="none" viewBox="0 0 24 20">
  <path fill="#fff" d="M23.372 10.837a.264.264 0 0 1 .036-.06.262.262 0 0 1 .036-.061c.012-.024.024-.036.036-.06a.26.26 0 0 1 .037-.06.09.09 0 0 1 .024-.061c.012-.024.012-.049.024-.073.012-.012.012-.036.024-.06 0-.024.012-.048.012-.06.012-.025.012-.049.024-.073 0-.024 0-.049.012-.073v-.06a1.078 1.078 0 0 0 0-.278v-.06c-.012-.025-.012-.049-.012-.073-.012-.024-.012-.048-.024-.072 0-.025-.012-.037-.012-.06-.012-.025-.012-.05-.024-.073-.012-.012-.012-.037-.024-.06-.012-.025-.024-.037-.024-.061-.012-.024-.025-.036-.037-.06-.012-.025-.024-.037-.036-.061a.26.26 0 0 1-.036-.06c-.012-.025-.024-.037-.036-.06-.012-.013-.025-.037-.037-.05-.036-.035-.06-.072-.096-.096L14.634.408a1.393 1.393 0 0 0-1.97 0 1.386 1.386 0 0 0 0 1.982l6.213 6.21H1.402A1.394 1.394 0 0 0 0 9.991c0 .773.628 1.402 1.402 1.402h17.474l-6.211 6.211a1.386 1.386 0 0 0 0 1.982c.266.266.628.411.979.411.362 0 .725-.145.99-.41l8.605-8.605c.036-.024.06-.06.096-.097a.165.165 0 0 1 .037-.048Z"/>
</svg>
