<svg width="30" height="20" viewBox="0 0 30 20" fill="none" xmlns="http://www.w3.org/2000/svg">
    <path fill-rule="evenodd" clip-rule="evenodd" d="M2.27459 9.99709C2.68443 9.36184 4.7541 7.14872 5.36885 6.65692C6.20902 5.98069 6.45492 5.67332 7.5 4.91512C11.2295 2.16922 14.9385 1.24709 19.2418 3.05036C19.8156 3.27577 20.4508 3.58315 20.9426 3.89053C21.4959 4.23889 21.9877 4.54627 22.5 4.91512C23.5656 5.7143 24.9385 6.90282 25.9016 7.88643L27.7049 9.99709C27.541 10.243 27.3361 10.4479 27.1311 10.6938C26.7828 11.1241 25.6148 12.4356 25.2664 12.7225C25.0205 12.9274 24.8975 13.1118 24.6311 13.3168C23.873 13.9315 23.5041 14.3823 22.5 15.0791C22.3771 15.161 22.2746 15.243 22.1516 15.325C22.0082 15.4274 21.9057 15.4889 21.7623 15.5913C19.7951 16.9438 17.3771 17.8864 14.8771 17.8864C13.2992 17.8864 11.9057 17.4356 10.7377 16.9438C8.62705 16.0627 6.31148 14.3413 4.73361 12.702L2.27459 9.99709ZM11.0656 10.12C11.0656 7.64053 12.7459 5.89872 15.1025 5.89872C17.1721 5.89872 18.9139 7.68151 18.9139 10.12C18.9139 12.2717 17.2131 14.0954 14.8771 14.0954C12.8484 14.0954 11.0656 12.2307 11.0656 10.12ZM14.8771 3.80856C14.6721 3.87004 13.6885 3.72659 12.4385 4.38233C11.168 5.03807 10.041 6.18561 9.5082 7.57905C8.89344 9.19791 8.89344 11.1241 9.63115 12.661C10.123 13.7061 10.7787 14.5258 11.6803 15.161C12.5615 15.7758 14.0984 16.3291 15.1434 16.2061C15.6967 16.1446 15.9426 16.1446 16.4139 16.0217C17.6025 15.7143 18.4426 15.1815 19.2828 14.3004C20.6762 12.8454 21.25 10.5504 20.7582 8.50118C20.3893 6.9643 19.5492 5.7143 18.2992 4.83315C17.418 4.19791 15.6557 3.60364 14.8771 3.80856ZM0 9.87414C0 10.4889 0.122951 10.5504 0.532787 11.0832L1.55738 12.3536C1.70082 12.5381 1.7623 12.5995 1.92623 12.7635C2.17213 13.0299 2.45902 13.2963 2.68443 13.5627C3.2377 14.2799 5.14344 15.9192 5.88115 16.452C6.18852 16.6774 6.45492 16.8823 6.7418 17.0872C7.27459 17.4971 8.9959 18.4807 9.65164 18.7676C13.75 20.6118 17.3975 20.3045 21.3115 18.2553C22.541 17.62 23.873 16.6979 24.9385 15.7963L28.0328 12.784C28.5041 12.3127 29.9795 10.6118 29.9795 10.12C29.9795 9.50528 29.8566 9.44381 29.4467 8.89053L26.9467 6.06266C26.5369 5.67332 26.2705 5.30446 25.7787 4.91512C25.2459 4.50528 24.8361 4.05446 24.0984 3.52168C23.0533 2.76348 22.5615 2.37413 21.3525 1.75938C17.418 -0.310292 13.7705 -0.638161 9.65164 1.22659C9.30328 1.37004 8.9959 1.55446 8.66803 1.73889C8.29918 1.92331 8.03279 2.06676 7.68443 2.29217C7.37705 2.49709 7.06967 2.64053 6.7623 2.86594L4.61066 4.52577C4.46721 4.66922 4.38525 4.77168 4.22131 4.91512C3.72951 5.30446 3.31967 5.79627 2.86885 6.2061L1.22951 8.02987C1.0041 8.31676 0.778689 8.56266 0.553279 8.87004C0.389344 9.09545 0 9.52577 0 9.87414H0Z" fill="black"/>
</svg>
