<svg xmlns="http://www.w3.org/2000/svg" width="20" height="20" fill="none" viewBox="0 0 20 20">
  <path fill="#000" d="M3.4 0h13.3c.9 0 1.7.398 2.4.995.5.597.9 1.493.9 2.388v13.234c0 .895-.4 1.691-1 2.388a3.5 3.5 0 0 1-2.4.995H9.8v-8.259h2.5V8.955H9.8V8.06c0-.697.1-1.095.3-1.294.2-.199.6-.298 1.1-.298.5 0 1 0 1.6.199l.4-2.289c-.9-.298-1.9-.398-2.8-.398-.9 0-1.8 0-2.4.299-.6.398-1 .796-1.3 1.293-.2.498-.3 1.393-.3 2.388v.995H4.5v2.687h1.9V19.9h-3c-.9 0-1.7-.398-2.4-.995-.6-.598-1-1.394-1-2.389V3.383c0-.995.4-1.791 1-2.388A3.32 3.32 0 0 1 3.4 0Z"/>
</svg>
