<svg width="168" height="40" viewBox="0 0 168 40" fill="none" xmlns="http://www.w3.org/2000/svg">
    <path fill-rule="evenodd" clip-rule="evenodd" d="M103.048 40H167.997V0H103.048V40Z" fill="#00349A"/>
    <path d="M135.509 4.39749L136.057 6.05858H137.832L136.398 7.08728L136.946 8.74836L135.509 7.71966L134.073 8.74836L134.62 7.08728L133.184 6.05858H134.961L135.509 4.39749ZM142.194 29.2234L142.742 30.8845H144.52L143.083 31.9102L143.631 33.5713L142.194 32.5455L140.758 33.5713L141.308 31.9102L139.869 30.8845H141.647L142.194 29.2234ZM147.108 24.4383L147.656 26.0965H149.43L147.994 27.1252L148.544 28.7862L147.108 27.7575L145.671 28.7862L146.219 27.1252L144.782 26.0965H146.557L147.108 24.4383ZM128.55 29.2234L129.098 30.8845H130.876L129.439 31.9102L129.987 33.5713L128.55 32.5455L127.114 33.5713L127.661 31.9102L126.225 30.8845H128.002L128.55 29.2234ZM123.684 24.4383L124.231 26.0965H126.009L124.572 27.1252L125.12 28.7862L123.684 27.7575L122.247 28.7862L122.795 27.1252L121.358 26.0965H123.136L123.684 24.4383ZM142.194 6.09937L142.742 7.76046H144.52L143.083 8.78625L143.631 10.4473L142.194 9.41862L140.758 10.4473L141.308 8.78625L139.869 7.76046H141.647L142.194 6.09937ZM147.108 11.0185L147.656 12.6796H149.43L147.994 13.7054L148.544 15.3665L147.108 14.3407L145.671 15.3665L146.219 13.7054L144.782 12.6796H146.557L147.108 11.0185ZM128.55 6.09937L129.098 7.76046H130.876L129.439 8.78625L129.987 10.4473L128.55 9.41862L127.114 10.4473L127.661 8.78625L126.225 7.76046H128.002L128.55 6.09937ZM123.684 11.0185L124.231 12.6796H126.009L124.572 13.7054L125.12 15.3665L123.684 14.3407L122.247 15.3665L122.795 13.7054L121.358 12.6796H123.136L123.684 11.0185ZM121.865 17.8173L122.413 19.4784H124.188L122.751 20.5042L123.302 22.1652L121.865 21.1394L120.428 22.1652L120.976 20.5042L119.54 19.4784H121.314L121.865 17.8173ZM149.177 17.861L149.728 19.5221H151.502L150.066 20.5508L150.613 22.2119L149.177 21.1832L147.74 22.2119L148.291 20.5508L146.854 19.5221H148.629L149.177 17.861ZM135.509 31.2371L136.057 32.8982H137.832L136.398 33.9239L136.946 35.585L135.509 34.5563L134.073 35.585L134.62 33.9239L133.184 32.8982H134.961L135.509 31.2371Z" fill="#FCCA00"/>
    <path d="M6.68512 4.30715C7.77211 4.30715 8.7163 4.482 9.52062 4.83462C10.3249 5.18724 10.9398 5.69139 11.3711 6.34708C11.7995 7.00277 12.0152 7.78377 12.0152 8.68425C12.0152 9.57599 11.7995 10.3512 11.3711 11.0156C10.9398 11.6771 10.3249 12.1842 9.52062 12.5368C8.7163 12.8865 7.77211 13.0643 6.68512 13.0643H3.86129V16.6137H1.53869V4.30715H6.68512ZM6.58021 11.1292C7.59143 11.1292 8.36077 10.9194 8.88533 10.4969C9.40988 10.0743 9.67215 9.47108 9.67215 8.68425C9.67215 7.90033 9.40988 7.2971 8.88533 6.87454C8.36077 6.45199 7.59143 6.24217 6.58021 6.24217H3.86129V11.1292H6.58021ZM14.8681 4.30715H17.1936V14.6816H23.736V16.6137H14.8681V4.30715ZM25.3213 10.8116H30.2375V12.6417H25.3213V10.8116ZM42.2993 10.2142C42.9929 10.4386 43.5407 10.8087 43.9458 11.3303C44.3509 11.852 44.5519 12.4989 44.5519 13.2741C44.5519 14.3407 44.1352 15.1654 43.3018 15.7453C42.4683 16.3252 41.2502 16.6137 39.6532 16.6137H33.4344V4.30715H39.2977C40.7752 4.30715 41.9117 4.59274 42.7102 5.16101C43.5087 5.72927 43.9079 6.51027 43.9079 7.50692C43.9079 8.11598 43.7651 8.65511 43.4795 9.12429C43.1939 9.59347 42.8005 9.95774 42.2993 10.2142ZM35.757 6.09937V9.49439H39.0471C39.8572 9.49439 40.4808 9.35159 40.9151 9.06309C41.3493 8.77459 41.5678 8.35786 41.5678 7.80708C41.5678 7.24464 41.3493 6.81917 40.9151 6.53067C40.4808 6.24508 39.8572 6.09937 39.0471 6.09937H35.757ZM39.5104 14.8215C41.3114 14.8215 42.2119 14.2299 42.2119 13.0439C42.2119 11.8607 41.3114 11.2691 39.5104 11.2691H35.757V14.8215H39.5104ZM52.7 12.2716V16.6137H50.3745V12.3066L45.4583 4.30715H47.944L51.6101 10.3016L55.3111 4.30715H57.5987L52.7 12.2716ZM58.3797 10.8116H63.2959V12.6417H58.3797V10.8116ZM71.8724 16.7915C70.1442 16.7915 68.7979 16.3136 67.8304 15.3577C66.8658 14.4019 66.382 13.0322 66.382 11.2516V4.30715H68.7076V11.1642C68.7076 13.5801 69.7683 14.7865 71.8898 14.7865C73.9997 14.7865 75.0546 13.5801 75.0546 11.1642V4.30715H77.3423V11.2516C77.3423 13.0322 76.8614 14.4019 75.9027 15.3577C74.9439 16.3136 73.6005 16.7915 71.8724 16.7915ZM88.9757 13.7666H82.7189L81.4833 16.6137H79.0879L84.721 4.30715H87.0086L92.6592 16.6137H90.2258L88.9757 13.7666ZM88.2063 11.9744L85.8458 6.59187L83.5058 11.9744H88.2063ZM9.70713 33.5801V35.5151H0.483753V33.9851L5.45243 29.3458C6.01195 28.8183 6.39079 28.3579 6.58895 27.9644C6.7842 27.571 6.88329 27.1805 6.88329 26.7959C6.88329 26.2218 6.68512 25.7817 6.29171 25.4757C5.89829 25.1727 5.32129 25.0182 4.55777 25.0182C3.28428 25.0182 2.30511 25.4466 1.62611 26.3034L0 25.0736C0.489582 24.4266 1.14819 23.9254 1.97581 23.5699C2.80344 23.2114 3.73015 23.0337 4.75594 23.0337C6.11394 23.0337 7.19802 23.3484 8.00816 23.9808C8.8183 24.6161 9.22337 25.4757 9.22337 26.5656C9.22337 27.2359 9.08058 27.8625 8.79499 28.4482C8.5094 29.034 7.96153 29.7013 7.15139 30.4532L3.80883 33.5801H9.70713ZM16.2145 35.6899C15.2149 35.6899 14.3203 35.4422 13.5334 34.9439C12.7466 34.4456 12.1259 33.7199 11.6742 32.7641C11.2225 31.8082 10.9952 30.6746 10.9952 29.3633C10.9952 28.049 11.2225 26.9153 11.6742 25.9595C12.1259 25.0036 12.7466 24.278 13.5334 23.7797C14.3203 23.2814 15.2149 23.0337 16.2145 23.0337C17.217 23.0337 18.1116 23.2814 18.9043 23.7797C19.6969 24.278 20.3206 25.0036 20.7723 25.9595C21.2269 26.9153 21.4542 28.049 21.4542 29.3633C21.4542 30.6746 21.2269 31.8082 20.7723 32.7641C20.3206 33.7199 19.6969 34.4456 18.9043 34.9439C18.1116 35.4422 17.217 35.6899 16.2145 35.6899ZM16.2145 33.7054C17.1091 33.7054 17.8144 33.3411 18.3331 32.6155C18.8518 31.8869 19.1112 30.8029 19.1112 29.3633C19.1112 27.9207 18.8518 26.8367 18.3331 26.1081C17.8144 25.3825 17.1091 25.0182 16.2145 25.0182C15.3315 25.0182 14.6321 25.3825 14.1134 26.1081C13.5946 26.8367 13.3353 27.9207 13.3353 29.3633C13.3353 30.8029 13.5946 31.8869 14.1134 32.6155C14.6321 33.3411 15.3315 33.7054 16.2145 33.7054ZM27.2621 23.2085V35.5151H24.9395V25.126H22.2935V23.2085H27.2621ZM40.9034 32.7204H38.6857V35.5151H36.433V32.7204H29.5702V31.138L35.7366 23.2085H38.2224L32.4115 30.7854H36.5059V28.3083H38.6857V30.7854H40.9034V32.7204ZM42.2614 29.713H47.1776V31.5431H42.2614V29.713ZM57.7444 33.5801V35.5151H48.5181V33.9851L53.4897 29.3458C54.0492 28.8183 54.4281 28.3579 54.6233 27.9644C54.8215 27.571 54.9206 27.1805 54.9206 26.7959C54.9206 26.2218 54.7224 25.7817 54.329 25.4757C53.9356 25.1727 53.3586 25.0182 52.5951 25.0182C51.3216 25.0182 50.3424 25.4466 49.6634 26.3034L48.0373 25.0736C48.524 24.4266 49.1826 23.9254 50.0131 23.5699C50.8407 23.2114 51.7674 23.0337 52.7932 23.0337C54.1512 23.0337 55.2353 23.3484 56.0455 23.9808C56.8556 24.6161 57.2607 25.4757 57.2607 26.5656C57.2607 27.2359 57.1179 27.8625 56.8323 28.4482C56.5467 29.034 55.9988 29.7013 55.1887 30.4532L51.8432 33.5801H57.7444ZM64.2518 35.6899C63.2493 35.6899 62.3576 35.4422 61.5707 34.9439C60.7839 34.4456 60.1632 33.7199 59.7115 32.7641C59.2569 31.8082 59.0325 30.6746 59.0325 29.3633C59.0325 28.049 59.2569 26.9153 59.7115 25.9595C60.1632 25.0036 60.7839 24.278 61.5707 23.7797C62.3576 23.2814 63.2493 23.0337 64.2518 23.0337C65.2514 23.0337 66.1489 23.2814 66.9416 23.7797C67.7342 24.278 68.3579 25.0036 68.8096 25.9595C69.2642 26.9153 69.4886 28.049 69.4886 29.3633C69.4886 30.6746 69.2642 31.8082 68.8096 32.7641C68.3579 33.7199 67.7342 34.4456 66.9416 34.9439C66.1489 35.4422 65.2514 35.6899 64.2518 35.6899ZM64.2518 33.7054C65.1464 33.7054 65.8517 33.3411 66.3704 32.6155C66.8891 31.8869 67.1485 30.8029 67.1485 29.3633C67.1485 27.9207 66.8891 26.8367 66.3704 26.1081C65.8517 25.3825 65.1464 25.0182 64.2518 25.0182C63.3688 25.0182 62.6694 25.3825 62.1507 26.1081C61.6319 26.8367 61.3726 27.9207 61.3726 29.3633C61.3726 30.8029 61.6319 31.8869 62.1507 32.6155C62.6694 33.3411 63.3688 33.7054 64.2518 33.7054ZM80.0379 33.5801V35.5151H70.8116V33.9851L75.7832 29.3458C76.3427 28.8183 76.7215 28.3579 76.9168 27.9644C77.115 27.571 77.2111 27.1805 77.2111 26.7959C77.2111 26.2218 77.0159 25.7817 76.6225 25.4757C76.229 25.1727 75.652 25.0182 74.8885 25.0182C73.6121 25.0182 72.6359 25.4466 71.9569 26.3034L70.3308 25.0736C70.8174 24.4266 71.476 23.9254 72.3066 23.5699C73.1342 23.2114 74.0609 23.0337 75.0838 23.0337C76.4447 23.0337 77.5288 23.3484 78.3389 23.9808C79.1491 24.6161 79.5541 25.4757 79.5541 26.5656C79.5541 27.2359 79.4113 27.8625 79.1257 28.4482C78.8402 29.034 78.2923 29.7013 77.4792 30.4532L74.1367 33.5801H80.0379ZM86.5452 35.6899C85.5428 35.6899 84.6481 35.4422 83.8642 34.9439C83.0774 34.4456 82.4566 33.7199 82.005 32.7641C81.5503 31.8082 81.323 30.6746 81.323 29.3633C81.323 28.049 81.5503 26.9153 82.005 25.9595C82.4566 25.0036 83.0774 24.278 83.8642 23.7797C84.6481 23.2814 85.5428 23.0337 86.5452 23.0337C87.5448 23.0337 88.4424 23.2814 89.235 23.7797C90.0277 24.278 90.6513 25.0036 91.103 25.9595C91.5547 26.9153 91.782 28.049 91.782 29.3633C91.782 30.6746 91.5547 31.8082 91.103 32.7641C90.6513 33.7199 90.0277 34.4456 89.235 34.9439C88.4424 35.4422 87.5448 35.6899 86.5452 35.6899ZM86.5452 33.7054C87.437 33.7054 88.1451 33.3411 88.6638 32.6155C89.1826 31.8869 89.4419 30.8029 89.4419 29.3633C89.4419 27.9207 89.1826 26.8367 88.6638 26.1081C88.1451 25.3825 87.437 25.0182 86.5452 25.0182C85.6622 25.0182 84.9628 25.3825 84.4441 26.1081C83.9254 26.8367 83.666 27.9207 83.666 29.3633C83.666 30.8029 83.9254 31.8869 84.4441 32.6155C84.9628 33.3411 85.6622 33.7054 86.5452 33.7054Z" fill="#00349A"/>
</svg>
