<svg xmlns="http://www.w3.org/2000/svg" width="20" height="20" fill="none" viewBox="0 0 20 20">
  <path fill="#000" d="M3.383 0h13.234c.995 0 1.791.4 2.388 1S20 2.4 20 3.3v13.3c0 1-.398 1.8-.995 2.4-.597.6-1.493 1-2.388 1H3.383c-.995 0-1.791-.4-2.388-1A3.5 3.5 0 0 1 0 16.6V3.4C0 2.4.398 1.6.995 1c.597-.6 1.393-1 2.388-1ZM16.02 5.5c-.896 0-1.493-.7-1.493-1.6 0-.8.697-1.5 1.493-1.5.895 0 1.492.7 1.492 1.5 0 .9-.696 1.6-1.492 1.6Zm-6.07-.7c1.393 0 2.687.6 3.582 1.5.995 1 1.493 2.2 1.493 3.7s-.597 2.7-1.493 3.6c-.895 1-2.189 1.5-3.582 1.5-1.393 0-2.686-.6-3.681-1.5-.995-.9-1.493-2.2-1.493-3.6s.597-2.7 1.493-3.7c.895-1 2.288-1.5 3.681-1.5Zm2.687 2.5c-.697-.7-1.592-1.2-2.687-1.2-1.094 0-1.99.4-2.786 1.1-.796.7-1.094 1.7-1.094 2.8 0 1 .398 2 1.094 2.7.697.7 1.692 1.1 2.786 1.1.995 0 1.99-.4 2.687-1.1.696-.7 1.094-1.7 1.094-2.7.1-1.1-.398-2-1.094-2.7Zm3.88-6H3.383c-.597 0-1.094.2-1.492.6-.398.4-.597.9-.597 1.5v13.3c0 .6.199 1.1.597 1.5.398.4.895.6 1.492.6h13.234c.597 0 1.094-.2 1.492-.6.398-.3.597-.9.597-1.5V3.4c0-.6-.198-1.1-.596-1.4-.498-.5-.996-.7-1.593-.7Z"/>
</svg>
