<?xml version="1.0" encoding="UTF-8"?>
<!DOCTYPE svg PUBLIC "-//W3C//DTD SVG 1.1//EN" "http://www.w3.org/Graphics/SVG/1.1/DTD/svg11.dtd">
<!-- Creator: CorelDRAW 2017 -->
<svg xmlns="http://www.w3.org/2000/svg" xml:space="preserve" width="34px" height="20px" version="1.1" style="shape-rendering:geometricPrecision; text-rendering:geometricPrecision; image-rendering:optimizeQuality; fill-rule:evenodd; clip-rule:evenodd"
viewBox="0 0 4.271 2.492"
 xmlns:xlink="http://www.w3.org/1999/xlink">
 <defs>
  <style type="text/css">
   <![CDATA[
    .fil0 {fill:#FEFEFE;fill-rule:nonzero}
    .fil1 {fill:#BC222E;fill-rule:nonzero}
    .fil2 {fill:#322D79;fill-rule:nonzero}
   ]]>
  </style>
 </defs>
 <g id="Слой_x0020_1">
  <metadata id="CorelCorpID_0Corel-Layer"/>
  <polygon class="fil0" points="0,2.492 4.271,2.492 4.271,0 0,0 "/>
  <polygon class="fil1" points="2.86,0.901 4.271,0.111 4.271,0 4.174,0 2.565,0.901 "/>
  <polygon class="fil1" points="2.793,1.641 4.271,2.468 4.271,2.303 3.089,1.641 "/>
  <polygon class="fil1" points="0,0.19 1.264,0.901 1.56,0.901 0,0.024 "/>
  <polygon class="fil1" points="1.493,1.641 0,2.477 0,2.492 0.27,2.492 1.788,1.641 "/>
  <polygon class="fil2" points="3.979,0 2.484,0 2.484,0.838 "/>
  <polygon class="fil2" points="1.823,0 0.334,0 1.823,0.838 "/>
  <polygon class="fil2" points="4.271,0.901 4.271,0.329 3.257,0.901 "/>
  <polygon class="fil2" points="4.271,2.206 4.271,1.641 3.257,1.641 "/>
  <polygon class="fil2" points="0.418,2.492 1.823,2.492 1.823,1.704 "/>
  <polygon class="fil2" points="2.484,2.492 3.893,2.492 2.484,1.704 "/>
  <polygon class="fil2" points="0,1.641 0,2.232 1.05,1.641 "/>
  <polygon class="fil2" points="0,0.901 1.05,0.901 0,0.309 "/>
  <polygon class="fil1" points="1.955,0 1.955,1.049 0,1.049 0,1.493 1.955,1.493 1.955,2.492 2.351,2.492 2.351,1.493 4.271,1.493 4.271,1.049 2.351,1.049 2.351,0 "/>
 </g>
</svg>
