<svg xmlns="http://www.w3.org/2000/svg" width="19" height="24" fill="none" viewBox="0 0 19 24">
  <path fill="#141515" stroke="#000" d="m5.022 7.011-.003.007c-.15.34-.26.634-.331.964-.07.329-.095.672-.095 1.112 0 2.14 1.634 3.906 3.643 4.421l.037.01.038.004.961.094.024.002h.025c1.12 0 2.384-.636 3.207-1.338l.013-.011.012-.012c.739-.721 1.4-1.78 1.4-3.17 0-3.686-3.875-5.56-6.574-4.297l-.007.004c-1.024.5-1.901 1.226-2.35 2.21Zm3.03 15.24-.008-.008-.008-.007c-.195-.19-.234-.233-.288-.339l-.037-.073-.059-.057-.684-.667a.652.652 0 0 0-.222-.238v-.073l-.151-.147c-.195-.19-.234-.233-.289-.339l-.027-.053-.04-.046c-1.286-1.488-2.728-3.335-3.847-5.3C1.27 12.935.5 10.89.5 9c0-2.215.91-4.428 2.444-5.923C4.498 1.56 6.78.5 8.936.5c1.218 0 2.152.114 2.992.366.838.25 1.608.645 2.493 1.235 2.168 1.5 3.625 4.25 3.625 6.993 0 .37-.064.75-.147 1.168l-.049.24c-.065.319-.136.661-.178 1.002-.3.78-.838 2.167-1.188 2.768l-.764 1.211-.012.02-.01.019c-.272.53-1.018 1.716-1.401 2.278-.59.768-1.71 2.22-2.347 2.842l-.014.015-.014.015-1.03 1.188-.01.006-.003.002-.041.025a.65.65 0 0 0-.221.238l-.877.855c-.103.1-.193.194-.268.274l-.026.027a6.202 6.202 0 0 1-.195.199.864.864 0 0 1-.15-.118L8.05 22.25Z"/>
</svg>
