<svg width="285" height="69" viewBox="0 0 285 69" fill="none" xmlns="http://www.w3.org/2000/svg">
    <path d="M27.33 11.4214C30.6518 14.2527 34.2907 17.3542 35.624 18.0659L35.6786 18.0204C35.7164 17.989 35.7542 17.9577 35.7735 17.941L39.5628 14.5168C39.8482 14.2587 40.0598 14.0339 40.291 13.7881C40.4065 13.6654 40.5269 13.5374 40.6638 13.3975L49.36 5.45476C49.634 5.22432 49.8573 4.98664 50.0909 4.73815C50.2115 4.60977 50.3349 4.47851 50.4694 4.34386C50.6453 4.16453 50.7962 4.00624 50.941 3.85431C51.1825 3.60088 51.4072 3.36514 51.7034 3.079C52.0315 2.76439 52.2071 2.64818 52.3967 2.52275C52.5456 2.42424 52.7031 2.32003 52.9498 2.10956C53.5419 1.60844 53.9718 1.17687 54.3103 0.836999C54.8074 0.338026 55.1075 0.0367054 55.4351 0.00313893C55.9345 -0.0480329 56.4976 0.52308 57.9193 1.96485L58.2016 2.25102L72.8351 15.9106C73.1198 16.1704 73.3085 16.299 73.4916 16.424C73.6987 16.5652 73.8988 16.7017 74.2228 17.0174C74.3795 17.1693 74.4928 17.2872 74.5898 17.3881C74.8247 17.6324 74.964 17.7773 75.3903 18.0659C77.6423 16.5476 81.9282 12.9399 84.616 10.6774L84.6187 10.6751L84.6205 10.6736L84.6452 10.6529C84.9662 10.3826 85.264 10.1319 85.5324 9.90672C86.4737 9.11853 87.1907 8.47172 87.7584 7.95952C88.8922 6.93667 89.431 6.45068 89.9723 6.44778C90.4623 6.44516 90.9544 6.83844 91.8921 7.58773L91.8931 7.58856L91.894 7.58928C92.197 7.83136 92.5464 8.11055 92.9572 8.42551L109.639 21.6898C109.707 21.74 109.768 21.7844 109.824 21.8246C110.286 22.1608 110.341 22.2007 110.794 22.8548L109.635 24.1987C108.066 23.1376 106.53 22.0849 104.991 21.0296C103.265 19.8461 101.534 18.6595 99.7463 17.4542C99.3082 17.1598 98.9539 16.8981 98.5962 16.6339C98.211 16.3494 97.8218 16.062 97.3198 15.7275C96.4877 15.1725 95.6675 14.5794 94.8448 13.9846C93.2808 12.8537 91.7079 11.7164 90.028 10.8221L83.0519 16.8801C81.872 18.0659 76.6451 22.8049 75.9429 22.8049C74.134 22.8049 72.9592 21.5221 71.4336 19.8564C71.0145 19.3988 70.5688 18.9121 70.0762 18.4153L68.2647 16.6221C68.2548 16.6139 68.2438 16.6052 68.2323 16.5961L68.2106 16.5789C68.1752 16.551 68.1379 16.5215 68.111 16.4973L67.3631 15.8607L67.3425 15.844L67.3098 15.8181C67.2744 15.7901 67.2363 15.7601 67.2094 15.7359C67.1841 15.7139 67.139 15.677 67.0905 15.6371L67.0894 15.6362C67.0185 15.578 66.9405 15.514 66.9061 15.4821L65.2441 13.8178C64.7261 13.295 64.2094 12.7537 63.6909 12.2106C62.6124 11.081 61.526 9.94301 60.4037 8.94559C60.2873 8.84158 59.9633 8.58777 59.9466 8.57529L58.4966 7.24803C58.0657 6.87647 57.6721 6.4577 57.2805 6.04101C56.7205 5.4452 56.1645 4.85358 55.5092 4.41043L53.9761 5.65448C53.9553 5.6732 53.9293 5.69609 53.9034 5.71897C53.8774 5.74185 53.8514 5.76474 53.8307 5.78346L53.3736 6.15792C52.404 7.02434 51.5181 8.00015 50.6317 8.97645C49.4366 10.2927 48.2407 11.61 46.838 12.6611C45.3294 13.7891 44.0176 15.1877 42.7101 16.5817C42.127 17.2034 41.5448 17.8241 40.9464 18.4195L39.916 19.3307C39.5329 19.6559 39.1403 20.0798 38.7333 20.5191C37.7191 21.6139 36.6158 22.8049 35.3497 22.8049C34.2057 22.8049 31.9591 20.6808 30.1055 18.9282C29.2258 18.0965 28.4346 17.3485 27.8917 16.9508C27.4453 16.6243 27.1801 16.349 26.9023 16.0606C26.6915 15.8417 26.4734 15.6152 26.1633 15.3531L24.3725 13.8178C24.297 13.7401 24.2295 13.6691 24.1661 13.6023C23.9576 13.3826 23.7926 13.2087 23.5249 12.9981C23.3501 12.8606 23.1026 12.6272 22.8225 12.363C22.1111 11.6918 21.1891 10.8221 20.7121 10.8221L3.81003 22.472C3.52285 22.6653 3.26771 22.8515 3.03631 23.0205C1.76787 23.9467 1.21226 24.3523 0 22.5261C1.51143 21.7185 2.90902 20.5066 4.25403 19.3404L4.25499 19.3396C4.61416 19.0282 4.96957 18.72 5.3224 18.4237C5.65802 18.1395 5.98916 17.898 6.34544 17.6382C6.47433 17.5441 6.6065 17.4477 6.74337 17.3461C7.10945 17.0729 7.27987 16.9239 7.46094 16.7657C7.59429 16.6491 7.73345 16.5275 7.96075 16.3475C8.84159 15.6443 9.55623 15.0743 10.4495 14.3961L19.6069 7.1981C19.7292 7.10486 19.8417 7.00343 19.9515 6.9044C20.2631 6.62341 20.5531 6.3618 20.9863 6.3618C21.3939 6.3618 24.2234 8.77348 27.33 11.4214Z" fill="#141515"/>
    <path d="M1.65779 35.6239C1.65779 41.8941 2.54278 48.9423 5.24345 54.3013L9.72657 60.921L14.5836 65.219C14.828 65.3952 15.0494 65.5182 15.2816 65.6471C15.4442 65.7374 15.6121 65.8306 15.7969 65.9471C22.9516 70.4573 33.7792 69.5628 41.2455 65.8223C41.9113 65.4871 42.0815 65.4173 42.666 65.1775L42.9698 65.0526L47.964 62.8474C55.9289 59.4315 55.3181 56.2485 53.8514 56.2485H36.1766C35.0381 58.4246 33.4052 59.964 30.5467 59.4273C29.9288 59.3112 29.1388 59.2823 28.2205 59.2487C25.1559 59.1364 20.6617 58.9719 16.3619 55.3415C12.8178 52.3458 12.5934 46.2712 16.1625 41.9024L17.0682 40.8664C19.5858 38.6897 20.7159 38.6899 23.6177 38.6904L23.7493 38.6904C25.1038 38.6904 25.6564 38.8859 26.6536 39.3811L28.1036 40.4254C32.6865 45.102 29.1797 49.2794 27.8917 49.2794C27.777 49.2794 27.5475 49.097 27.333 48.9266C27.2367 48.8501 27.1434 48.776 27.0649 48.7218C27.2074 48.1044 27.6695 47.6681 28.115 47.2476C28.9033 46.5033 29.6396 45.8081 28.4609 44.2449C25.9597 40.9247 19.6069 42.3393 19.6069 46.7705C19.6069 50.2863 22.8602 53.4609 25.9597 53.4609C29.2462 53.4609 30.2268 53.1738 32.7986 50.6066C35.4619 47.9479 35.8234 43.4877 33.6421 40.1341C33.0757 39.2606 32.5445 38.8399 32.0313 38.4334C31.5618 38.0615 31.1073 37.7016 30.6547 37.0178C36.2763 34.0179 33.7626 26.9863 30.3763 26.9863C30.1763 26.9863 29.9835 26.9828 29.7966 26.9794C28.7137 26.9597 27.8275 26.9435 26.8779 27.6354C25.2281 28.837 26.2067 30.2976 26.7112 31.0507C26.7378 31.0904 26.763 31.1281 26.7865 31.1637C27.2913 31.1222 27.8947 30.904 28.491 30.6884C29.868 30.1905 31.2073 29.7062 31.2073 31.4424C31.2073 33.2879 29.1254 33.7702 26.7222 34.3269C26.6168 34.3513 26.5108 34.3759 26.4043 34.4007C24.3405 34.8865 21.8468 35.117 19.6296 35.3219L19.3327 35.3493C16.5323 35.6031 11.1143 39.9677 10.4952 42.3143H9.94263C9.92885 41.7173 9.86569 41.4366 9.80301 41.158C9.73333 40.8484 9.66425 40.5414 9.66425 39.8054C9.66425 39.0188 9.65675 38.2848 9.64968 37.5932C9.59937 32.67 9.57104 29.8974 12.4272 25.5925C13.7406 25.5925 14.7841 25.6075 15.6114 25.6194C17.7138 25.6497 18.4198 25.6599 18.6088 25.3523C18.7043 25.1968 18.6678 24.9601 18.6127 24.6036C18.5643 24.2908 18.5017 23.8857 18.5017 23.3624C16.499 22.8922 4.75318 23.0586 4.69501 23.0836C3.86819 23.4164 2.2187 26.7367 1.98187 28.1472L1.65779 35.6239Z" fill="#141515"/>
    <path d="M98.3128 25.5925C98.494 25.866 98.6382 26.0584 98.7685 26.2323C99.0386 26.5927 99.2491 26.8735 99.605 27.6312C101.388 31.4219 101.126 35.8696 100.916 39.4403C100.855 40.4864 100.797 41.4574 100.797 42.3143C100.092 42.1241 99.9619 41.8531 99.7692 41.4509C99.6375 41.1758 99.4763 40.8394 99.0815 40.4254L98.9571 40.2948C97.7777 39.0567 96.602 37.8224 95.0928 36.9221L95.0082 36.8715C94.0825 36.3175 93.5778 36.0154 92.5251 35.6115C92.1372 35.4634 90.9615 35.3044 89.4815 35.1043C87.426 34.8263 84.7831 34.469 82.8483 33.9513C82.488 33.8546 82.1431 33.7354 81.8008 33.617C81.1567 33.3943 80.522 33.1748 79.8111 33.115C79.8051 33.0449 79.7785 32.9217 79.7444 32.7643C79.5421 31.8289 79.0791 29.6887 81.149 30.344C81.4287 30.4315 81.6927 30.5328 81.9567 30.6342C82.5592 30.8656 83.1619 31.0971 83.9535 31.1637C86.2595 27.6853 83.2597 26.9863 80.3637 26.9863C76.9816 26.9863 74.4679 34.0179 80.0853 37.0178C79.9336 37.2469 79.6109 37.5379 79.2046 37.9043C77.4191 39.5146 74.018 42.582 76.4041 48.2558C77.4511 50.7439 80.4801 53.4609 82.8483 53.4609C83.1875 53.4609 83.4833 53.466 83.7491 53.4706C85.1275 53.4944 85.702 53.5043 87.3564 52.7161C87.8674 52.4748 88.8023 51.8216 89.1347 51.4429C94.0416 45.8177 88.8854 41.2659 84.7679 42.5765C84.2756 42.735 84.1603 42.8097 83.9203 42.9652C83.8139 43.0341 83.683 43.1189 83.484 43.2339C82.5284 43.7914 81.7431 44.2532 81.7431 45.6554C81.7431 46.8745 82.1854 47.0646 82.8543 47.3521C83.0232 47.4247 83.2066 47.5036 83.4009 47.6068C83.4009 51.497 80.3637 48.2933 80.3637 44.8191C80.3637 43.1049 81.5936 41.4989 82.4993 40.5669C84.8676 38.1204 89.4671 38.1578 92.0597 39.7056C96.8004 42.5432 100.128 50.9603 93.2729 56.1778C92.2508 56.9559 89.8285 58.0043 88.5364 58.3663L84.8967 59.1485C84.1073 59.286 83.3235 59.2793 82.5521 59.2727C81.8293 59.2666 81.1173 59.2605 80.4219 59.3732C77.5176 59.8475 75.1036 58.2914 74.5635 56.2485L57.703 56.2319C56.059 56.2279 56.059 56.2354 56.0616 57.7286L56.0618 57.9211C56.0618 59.2817 59.9757 61.5659 61.2139 62.1942C61.8397 62.5144 62.4027 62.7629 62.9741 63.0151C63.442 63.2217 63.9157 63.4308 64.4339 63.6837L74.4596 67.7778C79.3749 69.4629 87.4104 69.4962 92.1511 67.3077C92.4537 67.1668 92.6376 67.0854 92.8587 66.9874L92.8601 66.9868L92.8614 66.9863C92.9857 66.9312 93.122 66.8708 93.2979 66.7918C98.8405 64.2662 102.065 59.91 105.052 54.967C108.929 48.5512 109.992 34.7377 108.517 27.5563C108.138 25.7096 107.543 24.9868 106.866 24.1644C106.602 23.8435 106.326 23.5074 106.045 23.0836H93.0652C92.2439 23.0836 92.1848 23.6835 92.1085 24.4571C92.1022 24.521 92.0958 24.5861 92.0888 24.6522C91.9619 25.8331 93.2139 25.7764 95.5476 25.6706C96.3465 25.6344 97.2723 25.5925 98.3128 25.5925Z" fill="#141515"/>
    <path d="M116.54 64.3286H120.957L121.235 54.8547L123.109 61.878C123.2 62.2513 123.296 62.5442 123.384 62.8153C123.536 63.2844 123.667 63.6878 123.72 64.3286H127.862L130.056 55.9531C130.112 55.7508 130.11 55.7025 130.108 55.6735C130.106 55.634 130.106 55.6305 130.26 55.3207C130.382 55.0755 130.424 55.0408 130.489 54.9877C130.523 54.9596 130.564 54.9265 130.625 54.8547V64.3286H135.042V49.2794H128.141L125.652 57.6424C125.652 57.0761 125.24 55.7493 124.906 54.6763L124.906 54.675C124.755 54.1874 124.619 53.7523 124.547 53.465C124.4 52.8895 124.248 52.339 124.098 51.7936C123.87 50.967 123.646 50.1516 123.446 49.2794H116.54V64.3286Z" fill="#141515"/>
    <path d="M35.9023 53.1821V23.9199C35.9023 22.8224 37.6371 22.8961 40.199 23.005C41.0753 23.0422 42.0484 23.0836 43.082 23.0836V54.0184C42.0484 54.0184 41.0753 54.0598 40.199 54.097C37.6371 54.2059 35.9023 54.2796 35.9023 53.1821Z" fill="#141515"/>
    <path d="M67.6581 23.9199V54.0184C68.6916 54.0184 69.6646 54.0597 70.5409 54.097C73.1028 54.2059 74.8377 54.2796 74.8377 53.1821V23.9199C74.8377 22.8598 73.4146 22.9189 71.0962 23.0151C70.3207 23.0473 69.4451 23.0836 68.4891 23.0836C67.8534 23.0836 67.6581 23.2791 67.6581 23.9199Z" fill="#141515"/>
    <path d="M64.6209 54.0184H57.7196V23.0836H64.6209V54.0184Z" fill="#141515"/>
    <path d="M46.6718 23.9199V54.0184H53.5772V23.0836H47.4986C46.8629 23.0836 46.6718 23.2791 46.6718 23.9199Z" fill="#141515"/>
    <path fill-rule="evenodd" clip-rule="evenodd" d="M119.414 23.4247C118.36 23.3924 117.377 23.3624 116.54 23.3624V8.3131C117.331 8.3131 118.268 8.28585 119.275 8.25655C123.135 8.14426 128.027 8.00193 129.695 9.24926C133.372 11.9953 129.287 15.4986 129.117 15.1533C129.1 15.12 129.062 15.1681 129.023 15.2162C129.004 15.2402 128.984 15.2642 128.968 15.2781C132.989 16.2268 132.416 20.5622 130.563 22.189C128.832 23.7129 123.573 23.5519 119.414 23.4247ZM121.788 19.7384H124.825C125.514 19.7384 125.821 19.5606 126.207 19.3367C126.293 19.2866 126.383 19.2341 126.483 19.1809V17.5083C121.666 16.376 121.684 16.827 121.764 18.8V18.8011C121.775 19.0826 121.788 19.3951 121.788 19.7384ZM122.615 11.3795C121.381 11.3795 121.381 14.163 122.615 14.163C123.501 14.163 123.887 14.077 124.524 13.9352L124.584 13.9217C124.892 13.8518 125.067 13.8206 125.175 13.8014C125.276 13.7835 125.318 13.776 125.354 13.7572C125.38 13.7438 125.403 13.7245 125.443 13.6913C125.514 13.6317 125.638 13.5272 125.93 13.3309C125.93 11.6167 125.095 11.3795 122.615 11.3795Z" fill="#141515"/>
    <path d="M121.788 34.2301V28.9377H116.54V43.9869H121.788V38.1328C122.841 38.2198 123.112 38.7895 123.708 40.0397C123.796 40.2252 123.892 40.4257 123.998 40.6417C124.123 40.8978 124.248 41.1561 124.374 41.4154C124.792 42.2766 125.215 43.1492 125.652 43.9869H131.452C131.365 42.9176 128.855 38.4532 128.078 37.6377C127.964 37.5182 127.86 37.4009 127.758 37.2878C127.321 36.7984 126.95 36.3842 126.205 36.1815C126.521 35.7481 126.634 35.6874 126.755 35.6224C126.872 35.5594 126.997 35.4923 127.322 35.0789C127.586 34.7416 127.761 34.4006 127.927 34.0781C128.419 33.1237 128.827 32.3316 131.178 32.2787V28.6589C125.494 28.6589 125.174 28.7089 123.35 32.466C123.244 32.6838 123.164 32.8736 123.093 33.0401C122.817 33.691 122.691 33.9883 121.788 34.2301Z" fill="#141515"/>
    <path fill-rule="evenodd" clip-rule="evenodd" d="M137.527 33.115V33.9513C137.992 33.8266 138.307 33.6386 138.62 33.4525C139.14 33.142 139.653 32.8363 140.842 32.8363C144.536 32.8363 146.281 35.2245 146.198 38.6363C146.144 40.7832 145.919 41.528 144.789 42.6722C143.119 44.3573 141.424 44.507 139.288 43.8788C138.527 43.6575 138.438 43.595 138.088 43.3472C138.01 43.2921 137.919 43.2278 137.805 43.1507V48.1643C137.027 48.1643 136.338 48.1911 135.74 48.2143C133.821 48.2889 132.836 48.3272 132.836 47.328V33.115H137.527ZM137.803 38.7128C137.804 38.8016 137.805 38.8873 137.805 38.9691C137.805 40.406 138.392 40.6421 139.18 40.9588C139.357 41.03 139.544 41.1053 139.737 41.1993C139.792 41.1699 139.846 41.1412 139.9 41.1129C140.748 40.6651 141.395 40.3233 141.395 38.9691V38.959C141.395 37.3859 141.395 35.9027 139.463 35.9027C137.777 35.9027 137.792 37.5599 137.803 38.7128Z" fill="#141515"/>
    <path d="M255.45 43.9869H260.145L264.288 39.2479V43.9869C265.02 43.9869 265.666 44.0114 266.226 44.0325C268.069 44.1022 268.983 44.1367 268.983 43.1507V33.115C268.345 33.115 267.797 33.1068 267.321 33.0996C265.831 33.0771 265.048 33.0652 264.396 33.3518C263.673 33.6694 263.111 34.3537 261.926 35.7963C261.741 36.0221 261.54 36.2665 261.321 36.531C261.07 36.8352 260.976 37.0072 260.904 37.1388C260.788 37.3529 260.73 37.4599 260.145 37.8541V33.115H255.45V43.9869Z" fill="#141515"/>
    <path d="M247.44 23.3624H242.745V12.4946C243.575 12.4946 244.264 12.475 244.834 12.4588C246.222 12.4192 246.908 12.3997 247.235 12.7327C247.554 13.0576 247.531 13.7184 247.486 15.0241L247.486 15.0251V15.0273C247.465 15.6193 247.44 16.3438 247.44 17.2295L251.582 12.4946H256.003V23.3624H251.582V18.6233C250.972 19.0368 250.939 19.0837 250.589 19.5808C250.555 19.6289 250.518 19.6811 250.477 19.7384L247.44 23.3624Z" fill="#141515"/>
    <path d="M259.04 23.3624H263.735L267.878 18.3446V23.3624H272.294V12.4946H267.599L263.457 17.5083V12.4946H259.04V23.3624Z" fill="#141515"/>
    <path d="M276.437 43.9869H271.742V33.115H276.163V38.1328C276.204 38.0829 276.262 38.0122 276.287 37.9831C276.741 37.4349 277.205 36.9122 277.665 36.3937C278.597 35.342 279.515 34.3078 280.305 33.115H285V43.9869H280.579V38.9691L276.437 43.9869Z" fill="#141515"/>
    <path d="M182.819 64.3286H187.514L191.656 59.3108V64.3286H196.073V53.4609H191.378C190.968 54.2473 190.073 55.2626 189.286 56.1547C188.966 56.5181 188.664 56.8611 188.42 57.1597C188.124 57.522 188.074 57.707 188.043 57.8195C187.997 57.9912 187.996 57.9938 187.236 58.1999V53.4609H182.819V64.3286Z" fill="#141515"/>
    <path d="M149.305 20.1779C149.887 20.2524 150.506 20.3316 150.506 19.1809V12.4946H163.486V23.3624H158.517V15.5569H155.201V20.8535C155.201 24.2208 151.461 23.7409 149.337 23.4685C148.913 23.414 148.553 23.3679 148.3 23.3624V20.8535C148.3 20.0495 148.788 20.1118 149.305 20.1779Z" fill="#141515"/>
    <path d="M165.975 23.3624H170.666C171.268 22.4553 173.969 19.1933 174.808 18.6233V23.3624H179.229V12.4946H174.534C174.355 13.1686 173.221 14.4668 172.673 15.0742C172.503 15.2637 172.368 15.3925 172.243 15.5124C172.043 15.703 171.867 15.8719 171.609 16.2268C171.479 16.4045 171.386 16.5402 171.31 16.6497C171.049 17.0293 171.004 17.095 170.392 17.5083V12.4946H165.975V23.3624Z" fill="#141515"/>
    <path d="M140.932 65.2639C141.161 64.9941 141.395 64.7171 141.395 64.6074C141.395 63.6232 140.14 61.0524 138.92 58.554C137.917 56.5001 136.938 54.4952 136.7 53.4609H141.669L143.364 58.4412C143.439 58.6423 143.503 58.7865 143.561 58.9183C143.675 59.1737 143.767 59.3826 143.879 59.8683L145.62 54.9379C145.717 54.6592 145.767 54.4554 145.812 54.2714C145.876 54.0132 145.93 53.7936 146.09 53.4609H150.785C150.574 54.3657 150.088 55.4575 149.619 56.5116C149.385 57.0376 149.154 57.5542 148.965 58.0335C148.628 58.8878 148.317 59.6378 148.012 60.3769C147.741 61.0307 147.474 61.6762 147.195 62.3773L145.263 66.8417C143.816 69.2542 140.813 68.8933 138.57 68.6237C138.197 68.579 137.846 68.5368 137.527 68.5101C137.527 67.7188 137.455 67.3049 137.385 66.9003C137.318 66.5134 137.252 66.1351 137.252 65.4437C138.584 65.7573 138.685 65.755 139.514 65.736C139.774 65.73 140.105 65.7225 140.568 65.7225C140.647 65.6017 140.788 65.4342 140.932 65.2639Z" fill="#141515"/>
    <path fill-rule="evenodd" clip-rule="evenodd" d="M152.717 36.739C153.211 34.875 155.438 35.4575 155.742 35.6239C155.895 35.7071 156.009 35.7631 156.093 35.8046C156.233 35.8733 156.292 35.9023 156.313 35.9486C156.328 35.9824 156.323 36.0255 156.314 36.1001C156.301 36.2137 156.278 36.4004 156.307 36.739C155.719 36.7885 155.38 36.895 155.011 37.0114C154.696 37.1104 154.359 37.2165 153.826 37.3007C153.551 37.3432 153.281 37.3831 153.018 37.422C149.956 37.8737 147.748 38.1997 147.748 41.1993C147.748 42.2436 148.412 43.055 149.069 43.4835C151.499 45.0771 154.445 44.0119 156.585 42.8719L157.15 43.9786L161.554 43.9869C161 41.586 161.004 39.6287 161.007 38.063C161.013 34.3461 161.016 32.8363 153.544 32.8363C148.953 32.8363 146.36 36.3354 149.389 36.4727C150.016 36.5001 150.433 36.5547 150.836 36.6074C151.351 36.6748 151.842 36.739 152.717 36.739ZM152.443 40.6417C153.059 39.7085 154.025 39.4891 155.633 39.1239L155.64 39.1224C155.851 39.0745 156.073 39.024 156.307 38.9691C156.307 41.8983 153.947 41.761 153.415 41.6154C153.27 41.5747 153.155 41.5449 153.064 41.5213C152.841 41.4632 152.762 41.4427 152.725 41.3917C152.704 41.3639 152.696 41.3269 152.683 41.2698C152.659 41.1604 152.618 40.977 152.443 40.6417Z" fill="#141515"/>
    <path fill-rule="evenodd" clip-rule="evenodd" d="M212.941 36.6072C212.316 36.5351 211.667 36.4602 210.711 36.4602C210.769 33.7808 213.012 32.8363 215.684 32.8363C223.423 32.8363 223.419 33.7305 223.4 38.5537C223.397 39.1064 223.395 39.7108 223.404 40.3713C223.416 41.2216 223.56 41.8465 223.702 42.4653C223.813 42.9426 223.922 43.4163 223.969 43.9869H219.548C219.49 43.8639 219.447 43.7811 219.416 43.7194L219.415 43.7183C219.378 43.6456 219.355 43.6021 219.34 43.5562C219.318 43.4879 219.313 43.4141 219.301 43.2307L219.3 43.2284L219.3 43.2269L219.3 43.2228L219.3 43.217C219.294 43.1295 219.286 43.0179 219.274 42.8719C211.284 47.1366 206.377 39.6931 213.636 37.7376C214.127 37.6059 214.68 37.5383 215.227 37.4715C215.665 37.418 216.099 37.365 216.494 37.2799C216.871 37.1999 217.141 37.1106 217.391 37.0278C217.829 36.8825 218.207 36.7576 218.996 36.739C217.436 33.7654 215.01 36.5589 214.86 36.7308L214.853 36.739C214.084 36.739 213.523 36.6743 212.941 36.6072ZM218.996 38.9691L215.131 40.0842C215.134 40.2237 215.134 40.3466 215.134 40.4557C215.134 41.1573 215.134 41.2876 215.896 41.5613C216.802 41.8858 218.784 41.5321 218.996 38.9691Z" fill="#141515"/>
    <path fill-rule="evenodd" clip-rule="evenodd" d="M226.175 43.9869C226.74 43.9869 227.435 44.0106 228.202 44.0366C231.78 44.1582 236.939 44.3335 237.879 42.4184C238.794 40.5669 238.125 38.8818 236.118 38.4116C236.516 37.8118 236.844 37.5334 237.1 37.316C237.547 36.9362 237.776 36.7422 237.776 35.3452C237.776 34.3508 236.172 33.115 235.013 33.115H226.175V43.9869ZM230.87 41.1993V39.5267H231.701C232.831 39.5267 233.263 39.8096 233.355 40.9205C232.928 40.9555 232.67 41.0073 232.422 41.0567C232.053 41.1306 231.709 41.1993 230.87 41.1993ZM231.975 37.2965H230.87V35.6239C231.726 35.6239 231.929 35.6775 232.367 35.7927C232.488 35.8246 232.627 35.8612 232.802 35.9027C232.8 35.9984 232.8 36.0895 232.8 36.176C232.797 36.8983 232.795 37.2965 231.975 37.2965Z" fill="#141515"/>
    <path d="M186.961 23.3624H182.266V12.4946H186.961V16.3932H190.83V12.4946H195.52V23.3624H190.83V19.4596H186.961V23.3624Z" fill="#141515"/>
    <path fill-rule="evenodd" clip-rule="evenodd" d="M172.05 64.3286C172.492 64.3286 172.939 64.3393 173.383 64.3499C175.387 64.3979 177.346 64.4448 178.689 63.5048C179.732 62.7725 180.33 62.3232 180.609 61.2622C178.851 61.2622 178.324 61.1511 177.913 61.0641C177.658 61.0103 177.447 60.9658 177.015 60.9626C176.095 60.9555 175.408 61.2822 174.827 61.5582C173.712 62.0883 172.99 62.4318 171.771 59.8683H180.887C180.887 54.2888 178.498 53.1821 173.155 53.1821C171.356 53.1821 170.014 53.6731 168.958 54.5218C166.449 56.5356 166.253 59.6645 168.169 62.3897C168.854 63.3592 170.4 64.3286 172.05 64.3286ZM175.914 57.6424H171.771C173.263 54.8006 175.739 55.5121 175.914 57.6424Z" fill="#141515"/>
    <path d="M198.952 43.9869H194.694V33.115H199.389V37.0178H203.257V33.115H207.948V43.9869H203.652C203.464 43.7797 203.358 43.6774 203.298 43.5525C203.195 43.3363 203.235 43.0524 203.249 42.0397C203.257 41.3865 203.257 40.7333 203.257 40.0842H199.389L199.36 43.4086C199.301 43.6365 199.285 43.7434 199.282 43.7885C199.266 43.7571 199.197 43.7398 198.952 43.9869Z" fill="#141515"/>
    <path d="M199.286 43.8162C199.284 43.8198 199.281 43.8142 199.282 43.7885C199.288 43.7997 199.288 43.8126 199.286 43.8162Z" fill="#141515"/>
    <path d="M227.833 23.3624H232.528C232.528 23.2346 232.528 23.1077 232.528 22.982C232.523 19.5318 232.52 17.0275 235.844 23.3624H241.365C241.186 23.0901 241.059 22.9313 240.924 22.7623C240.786 22.5905 240.64 22.4081 240.422 22.085C240.207 21.7658 239.995 21.4241 239.781 21.0794C238.958 19.7525 238.105 18.3795 236.945 18.0658C237.019 17.1739 237.414 16.7012 237.835 16.1969C238.001 15.9977 238.172 15.7936 238.328 15.5569H240.539V12.4946C240.08 12.4946 239.655 12.4848 239.257 12.4757C237.211 12.4285 235.901 12.3984 234.659 13.8094C234.272 14.2514 234.083 14.6769 233.915 15.0556C233.644 15.6643 233.427 16.1521 232.528 16.3932V12.4946H227.833V23.3624Z" fill="#141515"/>
    <path fill-rule="evenodd" clip-rule="evenodd" d="M140.29 12.2158C149.696 12.2158 150.282 23.6411 140.015 23.6411C136.322 23.6411 133.314 21.0032 133.459 17.8203C133.538 16.0562 134.527 14.6374 135.661 13.6762C136.592 12.8857 138.636 12.2158 140.29 12.2158ZM138.894 16.0978C138.403 16.7968 138.358 17.4583 138.358 18.3446C138.358 19.6926 139.23 20.5747 140.568 20.5747C142.592 20.5747 142.557 19.066 142.513 17.2324L142.513 17.231C142.507 16.9576 142.5 16.6771 142.5 16.3932C142.48 16.3797 142.441 16.3457 142.385 16.2976C141.895 15.8716 140.129 14.3368 138.894 16.0978Z" fill="#141515"/>
    <path d="M178.677 36.739C180.102 36.739 181.386 37.0261 182.545 37.2965C182.849 37.0911 183.087 36.8873 183.305 36.7006C184.144 35.9833 184.689 35.5179 187.514 36.1815C187.219 37.2992 186.457 37.2986 184.216 37.2967L183.924 37.2965V39.5267C184.49 39.5267 184.881 39.5166 185.18 39.5088C186.047 39.4863 186.146 39.4838 187.514 39.8055C187.435 40.7374 187.053 41.3366 185.125 41.1036C184.066 40.9753 183.71 40.6094 183.293 40.1816C183.089 39.9713 182.869 39.7461 182.545 39.5267C181.842 39.541 180.978 39.6885 180.145 39.8309C179.521 39.9376 178.913 40.0415 178.402 40.0842C178.595 40.9256 178.832 41.2487 179.313 41.9043L179.333 41.9316C182.719 46.5458 195.832 43.6291 191.835 39.0648C191.441 38.6139 191.263 38.5736 190.746 38.4564L190.745 38.4561C190.685 38.4426 190.621 38.4279 190.551 38.4116C190.57 38.3825 190.623 38.326 190.698 38.2461C191.346 37.5502 193.648 35.08 189.899 33.4937C187.797 32.6033 182.586 32.4701 180.712 33.7766C179.773 34.4298 178.789 35.3743 178.677 36.739Z" fill="#141515"/>
    <path d="M177.019 39.8055C176.258 43.0924 173.338 44.2616 170.118 44.2616C168.618 44.2616 165.988 43.6208 165.086 42.9301C163.033 41.3532 162.456 38.2993 163.511 35.9277C165.323 31.8627 175.486 31.2927 176.745 36.739C175.738 36.739 174.881 36.893 174.042 37.0437C173.475 37.1457 172.916 37.2462 172.324 37.2965C171.58 35.8763 171.361 35.8788 169.717 35.8976C169.507 35.9 169.273 35.9027 169.012 35.9027C168.808 36.2094 168.678 36.3377 168.581 36.4338C168.421 36.5918 168.349 36.6625 168.181 37.2965H171.497V39.5267H167.907C169.349 42.2769 171.912 41.0911 172.324 39.5267C174.132 39.5267 175.081 39.6338 175.802 39.7152C176.245 39.7652 176.602 39.8055 177.019 39.8055Z" fill="#141515"/>
    <path d="M151.612 57.0848C153.037 57.0848 154.321 57.3678 155.48 57.6424C155.783 57.4366 156.021 57.2326 156.239 57.0457C157.079 56.3257 157.622 55.86 160.449 56.5273C160.154 57.6451 159.392 57.6444 157.151 57.6425L156.859 57.6424V59.8683C157.425 59.8683 157.816 59.8582 158.116 59.8505C158.984 59.828 159.084 59.8254 160.449 60.1471C160.436 60.3089 160.43 60.4414 160.424 60.5509L160.424 60.5522L160.424 60.5558C160.411 60.8073 160.405 60.9365 160.34 61.0188C160.272 61.105 160.14 61.1405 159.87 61.2133C159.8 61.2321 159.72 61.2535 159.631 61.2788C157.48 61.8787 156.551 60.8928 155.976 60.2827C155.781 60.0761 155.627 59.9126 155.48 59.8683C154.78 59.8849 153.92 60.031 153.09 60.1722C152.462 60.279 151.851 60.3829 151.337 60.4259C151.607 61.5992 152.414 62.6186 153.261 63.2219C155.767 65.0027 165.422 65.2565 165.422 60.9834C165.422 59.9228 164.96 59.5528 164.462 59.1551C164.221 58.963 163.973 58.7645 163.765 58.4787C164.031 58.0746 164.246 57.8758 164.412 57.7214C164.726 57.4306 164.87 57.2976 164.87 56.2485C164.87 52.1544 152.052 51.7342 151.612 57.0848Z" fill="#141515"/>
    <path d="M199.704 22.2057C198.479 21.1613 197.731 19.8632 197.731 18.0658C197.731 11.1673 208.131 10.8137 210.723 14.4335C212.136 16.4058 211.286 16.4029 210.054 16.3987C209.666 16.3973 209.241 16.3959 208.837 16.4556C208.631 16.4854 208.519 16.5189 208.412 16.5507C208.221 16.6075 208.05 16.6586 207.399 16.6719C207.195 16.5353 206.996 16.3513 206.79 16.1619C206.326 15.7339 205.831 15.2781 205.189 15.2781C203.722 15.2781 202.704 15.9979 202.704 17.5083C202.704 21.6773 206.581 21.2404 207.121 18.9021C207.954 18.9021 208.265 18.9635 208.637 19.037C208.777 19.0647 208.926 19.0941 209.115 19.1226C209.303 19.1507 209.571 19.1477 209.866 19.1443C211.099 19.1304 212.79 19.1113 210.923 21.3444C208.164 24.6397 201.823 24.0156 199.704 22.2057Z" fill="#141515"/>
    <path d="M239.986 36.1815C239.986 42.2478 245.77 41.4156 248.271 40.0842V43.9869H252.966V33.115H248.271V36.739C247.515 36.9424 247.387 37.1151 247.3 37.2319C247.171 37.4065 247.134 37.4561 245.229 37.2965C244.898 35.8608 244.907 35.5359 244.934 34.5241C244.943 34.1667 244.955 33.723 244.955 33.115H239.986V36.1815Z" fill="#141515"/>
    <path fill-rule="evenodd" clip-rule="evenodd" d="M216.387 23.4176C215.47 23.3897 214.574 23.3624 213.748 23.3624V12.4946H218.721V16.3932C219.201 16.3932 219.656 16.3803 220.092 16.368C221.917 16.3166 223.396 16.2749 224.804 17.2253C226.308 18.2405 226.487 21.5316 224.625 22.6342C222.963 23.6181 219.55 23.5141 216.387 23.4176ZM218.721 20.5747H220.375C220.782 20.5747 220.856 20.5244 221.015 20.4165C221.066 20.3822 221.125 20.3421 221.206 20.2959C221.206 19.1603 221.144 19.1609 219.472 19.1765C219.251 19.1785 219.002 19.1809 218.721 19.1809V20.5747Z" fill="#141515"/>
    <path d="M264.562 11.3795C264.753 11.3795 264.942 11.3827 265.13 11.3859C266.642 11.4113 268.024 11.4345 269.041 9.76103C270.214 7.82718 268.549 7.95022 267.662 8.01583C267.528 8.02574 267.411 8.03434 267.325 8.03434C267.072 8.98298 266.594 9.31999 265.634 9.36992C264.583 9.42817 263.972 8.93721 263.735 8.03434C263.582 8.03434 263.435 8.0329 263.294 8.03152C261.863 8.01757 261.105 8.01018 261.907 9.58212C262.368 10.4933 263.341 11.3795 264.562 11.3795Z" fill="#141515"/>
    <path d="M282.237 28.6589C282.183 31.043 280.413 32 278.095 32C276.848 32 275.722 31.534 275.116 30.8308C274.604 30.2358 273.69 28.6589 275.057 28.6589C276.656 28.6589 276.722 28.8965 276.793 29.152C276.875 29.4488 276.964 29.7698 279.474 29.7698C279.609 29.5671 279.693 29.4617 279.75 29.3892C279.786 29.3445 279.812 29.3123 279.833 29.2776C279.888 29.189 279.915 29.0836 280.013 28.7095L280.027 28.6589H282.237Z" fill="#141515"/>
    <path d="M189.172 52.3458C191.486 52.3458 193.26 51.3888 193.314 49.0006H191.104L191.088 49.0603C190.992 49.4273 190.964 49.5326 190.91 49.6215C190.888 49.6573 190.862 49.6904 190.825 49.7369C190.768 49.8098 190.684 49.9155 190.551 50.1157H188.341C188.209 49.9173 188.126 49.8117 188.069 49.7389C188.032 49.6915 188.006 49.658 187.984 49.6219C187.931 49.5344 187.903 49.4315 187.809 49.0795L187.788 49.0006H185.582C185.582 50.3071 185.719 50.8105 186.504 51.4138C187.261 51.9921 187.959 52.3458 189.172 52.3458Z" fill="#141515"/>
</svg>
