<svg xmlns="http://www.w3.org/2000/svg" width="20" height="20" fill="none" viewBox="0 0 20 20">
  <path fill="#000" fill-rule="evenodd" d="M7.143 10.087c0-1.205.714-2.136 1.703-2.63 1.374-.711 3.077-.054 3.846 1.425.33.712.33 1.643 0 2.355-.165.328-.384.602-.604.876-.824.822-2.143 1.096-3.242.548-.989-.438-1.703-1.424-1.703-2.574ZM9.67 20c1.429 0 2.638-.11 3.847-.602l1.318-.603c.275-.11.605-.329.77-.657.11-.329.054-.767-.22-1.04a1.005 1.005 0 0 0-1.21-.165c-.988.602-1.977.931-3.131 1.095-2.088.22-4.066-.219-5.604-1.369-.44-.329-.935-.657-1.264-1.095a12.862 12.862 0 0 1-1.044-1.37c-.275-.493-.55-1.04-.714-1.643-.165-.547-.385-1.26-.385-1.972 0-.219-.055-.328-.055-.492 0-.22.055-.329.055-.603 0-.329.055-.712.11-1.04.55-2.684 2.417-4.82 4.89-5.806.275-.11.55-.22.88-.329 1.977-.493 3.57-.328 5.439.438 1.263.548 2.527 1.589 3.296 2.739 1.374 2.081 1.814 4.436 1.1 6.9-.44 1.48-1.759 1.425-2.363.823-.275-.22-.385-.439-.495-.822-.165-.931.165-6.08-.11-6.572-.274-.603-1.099-.767-1.593-.274a.906.906 0 0 0-.275.657l-.494-.329c-1.374-.766-3.132-.876-4.506-.164-.275.164-.44.274-.714.438-1.1.767-1.868 2.027-1.978 3.341v.274c-.11 1.04.22 2.136.769 2.958l.55.712a5.16 5.16 0 0 0 1.373.985c1.484.713 3.407.603 4.78-.328.11-.055.165-.11.275-.22.11-.054.22-.164.33-.218.11.438.714 1.04 1.099 1.26 1.153.766 2.527.82 3.736.109.44-.274.77-.657 1.099-1.095.384-.658.769-2.41.769-3.506 0-1.04 0-1.917-.275-2.903a8.785 8.785 0 0 0-.66-1.807c-.164-.274-.274-.493-.439-.767a9.968 9.968 0 0 0-1.593-2.081C15.769 1.597 14.011.72 12.253.283 10-.32 7.363.063 5.33 1.213l-.99.603C2.034 3.35.496 5.98.11 8.717L0 9.867c0 .439.165 1.808.22 2.191.11.493.275.986.44 1.48.384.985.878 1.916 1.593 2.738.33.438.769.876 1.209 1.26l.659.547a11.63 11.63 0 0 0 1.978 1.15c1.154.438 2.253.767 3.571.767Z" clip-rule="evenodd"/>
</svg>
