<svg xmlns="http://www.w3.org/2000/svg" width="20" height="20" fill="none" viewBox="0 0 20 20">
  <path fill="#000" fill-rule="evenodd" d="M0 4.936c0 1.152.492 2.798.984 3.785.327.658.655 1.152.983 1.81.656.987 1.64 2.303 2.46 3.126l2.294 2.304.984.822c.82.659 1.475.988 2.295 1.481.492.33 1.312.823 1.803.988l1.476.493c1.639.33 1.803.494 3.278-.493.984-.823 3.443-2.633 3.443-3.62 0-.823-.656-1.152-.984-1.481-.82-.494-3.77-2.468-4.754-2.468-.164 0-.492.164-.655.164-.328.33-.656.823-.82 1.152l-.492.494c-.656-.165-1.311-.659-1.967-.988-.656-.493-.82-.658-1.312-1.152-.164 0-.164 0-.327-.164l-.164-.165-.492-.493c-.164-.33-.328-.658-.492-.823-.164-.329-.492-.658-.492-.987l-.492-.987.328-.33.492-.329c0-.164 0-.164.164-.164l.492-.494c0-.164.328-.493.328-.658 0-.987-1.148-2.633-1.64-3.29-.164-.33-1.147-1.81-1.475-2.14C5.082.165 4.918 0 4.426 0 3.28 0 0 4.278 0 4.936Z" clip-rule="evenodd"/>
</svg>
