<svg width="20" height="20" viewBox="0 0 20 20" fill="none" xmlns="http://www.w3.org/2000/svg">
    <path fill-rule="evenodd" clip-rule="evenodd" d="M8.39827 14.0693C7.18615 14.0693 6.49351 14.026 5.41126 13.4632C3.50649 12.5108 2.38095 10.8658 2.07792 8.74459C1.90476 7.70563 2.12121 6.58009 2.51082 5.671C2.72727 5.15152 3.0303 4.71862 3.37662 4.28572C3.8961 3.59307 4.58875 3.07359 5.41126 2.68398C7.4026 1.64502 9.82684 1.90476 11.6017 3.20346C11.7749 3.29004 11.9048 3.37662 12.0346 3.50649C12.6407 3.98268 13.29 4.93507 13.5931 5.62771C13.8961 6.32035 14.1126 7.14286 14.1126 8.05195C14.1126 8.96104 13.8961 9.78355 13.5931 10.4762C13.3333 11.0823 12.9004 11.7749 12.4242 12.2511C12.1645 12.5108 11.9481 12.684 11.645 12.9004L10.7359 13.4632C10.1299 13.7662 9.26407 14.0693 8.39827 14.0693ZM7.70563 0H8.57143C9.5671 0.0865801 10.5628 0.30303 11.4719 0.779221C13.0736 1.55844 14.1558 2.55411 15.0216 4.02597C16.2771 6.06061 16.4502 8.74459 15.5844 10.9524C15.368 11.5584 14.8485 12.5108 14.4156 12.987C14.5455 13.1602 18.961 17.5325 19.4805 18.0519C19.697 18.2684 20 18.5281 20 18.9178C20 19.5671 19.6537 20 19.0476 20C18.5281 20 18.355 19.7836 18.0519 19.4805C17.5325 18.961 13.1602 14.5455 12.987 14.4156L12.2944 14.9351C10.3896 16.1472 7.48918 16.4935 5.36797 15.671C3.72294 15.0216 3.0303 14.4589 1.90476 13.29C1.47186 12.7706 1.08225 12.1212 0.779221 11.4719C0.17316 10.303 0 9.17749 0 7.74892C0 6.27706 0.606061 4.8052 1.34199 3.67965C1.38528 3.54978 1.42857 3.50649 1.51515 3.37662C1.81818 2.98701 2.03463 2.68398 2.38095 2.33766C3.80952 0.952381 5.75758 0.12987 7.70563 0Z" fill="black"/>
</svg>
